{
	"asset":{
		"generator":"Khronos glTF Blender I/O v4.3.47",
		"version":"2.0"
	},
	"scene":0,
	"scenes":[
		{
			"name":"Scene",
			"nodes":[
				0
			]
		}
	],
	"nodes":[
		{
			"mesh":0,
			"name":"3DBenchy"
		}
	],
	"meshes":[
		{
			"name":"3DBenchy",
			"primitives":[
				{
					"attributes":{
						"POSITION":0,
						"NORMAL":1
					},
					"indices":2
				}
			]
		}
	],
	"accessors":[
		{
			"bufferView":0,
			"componentType":5126,
			"count":660,
			"max":[
				1.3029812574386597,
				2.0022201538085938,
				0.643077552318573
			],
			"min":[
				-1.1969305276870728,
				-0.025852322578430176,
				-0.6503869891166687
			],
			"type":"VEC3"
		},
		{
			"bufferView":1,
			"componentType":5126,
			"count":660,
			"type":"VEC3"
		},
		{
			"bufferView":2,
			"componentType":5123,
			"count":672,
			"type":"SCALAR"
		}
	],
	"bufferViews":[
		{
			"buffer":0,
			"byteLength":7920,
			"byteOffset":0,
			"target":34962
		},
		{
			"buffer":0,
			"byteLength":7920,
			"byteOffset":7920,
			"target":34962
		},
		{
			"buffer":0,
			"byteLength":1344,
			"byteOffset":15840,
			"target":34963
		}
	],
	"buffers":[
		{
			"byteLength":17184,
			"uri":"ship_lod0.bin"
		}
	]
}
