{
	"asset":{
		"generator":"Khronos glTF Blender I/O v4.3.47",
		"version":"2.0"
	},
	"scene":0,
	"scenes":[
		{
			"name":"Scene",
			"nodes":[
				0
			]
		}
	],
	"nodes":[
		{
			"mesh":0,
			"name":"3DBenchy"
		}
	],
	"meshes":[
		{
			"name":"3DBenchy",
			"primitives":[
				{
					"attributes":{
						"POSITION":0,
						"NORMAL":1
					},
					"indices":2
				}
			]
		}
	],
	"accessors":[
		{
			"bufferView":0,
			"componentType":5126,
			"count":65365,
			"max":[
				1.2824574708938599,
				1.99699068069458,
				0.6448810696601868
			],
			"min":[
				-1.213760256767273,
				-6.34251023257093e-07,
				-0.6449622511863708
			],
			"type":"VEC3"
		},
		{
			"bufferView":1,
			"componentType":5126,
			"count":65365,
			"type":"VEC3"
		},
		{
			"bufferView":2,
			"componentType":5123,
			"count":67542,
			"type":"SCALAR"
		}
	],
	"bufferViews":[
		{
			"buffer":0,
			"byteLength":784380,
			"byteOffset":0,
			"target":34962
		},
		{
			"buffer":0,
			"byteLength":784380,
			"byteOffset":784380,
			"target":34962
		},
		{
			"buffer":0,
			"byteLength":135084,
			"byteOffset":1568760,
			"target":34963
		}
	],
	"buffers":[
		{
			"byteLength":1703844,
			"uri":"ship_lod_high.bin"
		}
	]
}
