<svg width="1398" height="222" viewBox="0 0 1398 222" fill="none" xmlns="http://www.w3.org/2000/svg">
<path d="M16.3594 34.1547C85.5527 34.1547 154.746 34.1547 223.939 34.1547C264.508 34.1547 304.315 35.7818 344.24 43.115C367.403 47.3695 388.954 57.6058 412.105 61.0356C467.066 69.1779 506.188 101.345 506.188 158.935C506.188 178.419 506.831 192.153 485.115 199.754C455.618 210.078 413.552 209.405 400.49 176.026C374.718 110.164 445.253 57.4967 503.202 46.7655C549.227 38.2422 594.714 25.1944 641.92 25.1944C667.367 25.1944 689.015 43.115 713.768 43.115C735.379 43.115 757.044 43.5951 778.648 43.115C797.434 42.6975 812.924 29.1302 830.418 23.701C846.24 18.7907 863.645 16.2341 880.198 16.2341C894.765 16.2341 907.949 14.9707 921.348 21.5439C932.887 27.2044 942.785 38.0557 954.203 42.9491C987.058 57.0297 1024.32 54.1509 1060.07 50.416C1087.55 47.5449 1112.04 34.7304 1139.22 31.3339C1159.6 28.7862 1179.27 28.1812 1199.78 28.1812C1232.86 28.1812 1265.93 28.1812 1299.01 28.1812C1315.59 28.1812 1371.09 37.5326 1381.31 22.2077" stroke="white" stroke-width="32" stroke-linecap="round"/>
</svg>
