<svg width="993" height="329" viewBox="0 0 993 329" fill="none" xmlns="http://www.w3.org/2000/svg">
<path d="M17.5611 92C17.5611 135.543 13.2129 179.277 28.7253 220.643C31.4974 228.036 38.0099 236.154 46.7484 236.477C51.591 236.657 57.8038 237.708 60.9043 233.267C68.2017 222.814 69.7098 211.245 74.0386 199.701" stroke="white" stroke-width="32" stroke-linecap="round"/>
<path d="M150.443 134.363C141.735 134.363 135.855 140.803 130.741 147.497C118.884 163.02 114.251 181.451 116.585 200.764C118.035 212.757 133.531 231.547 145.481 234.913C165.817 240.641 187.009 233.831 199.55 217.109C213.599 198.377 220.26 173.384 212.758 150.197C203.569 121.796 166.735 132.784 147.816 142.243" stroke="white" stroke-width="32" stroke-linecap="round"/>
<path d="M303.604 142.312C299.688 142.312 295.772 142.312 291.856 142.312C284.743 142.312 278.339 150.837 273.395 155.155C269.232 158.79 261.795 163.281 259.677 168.727C256.593 176.657 258.631 189.689 259.02 198.06C259.864 216.203 280.029 232.246 298.059 230.02C316.345 227.763 331.009 202.039 334.397 185.582C337.773 169.183 337.347 151.466 333.74 135.234C330.153 119.093 340.149 167.827 345.926 183.32C350.212 194.816 370.981 255.62 392.917 226.372" stroke="white" stroke-width="32" stroke-linecap="round"/>
<path d="M450.091 127.909C429.178 127.909 408.558 130.139 399.172 152.194C393.24 166.135 391.816 183.077 393.911 198.013C397.229 221.674 422.042 230.688 443.939 228.936C452.768 228.23 459.087 223.821 463.205 215.984C474.17 195.115 476.887 168.753 479.719 145.799C483.391 116.047 484.885 86.1473 485.062 56.1859C485.132 44.2687 486.552 30.9354 484.252 19.1101C483.473 15.0997 481.953 14.8291 480.61 19.1101C474.046 40.0318 475.464 65.0836 475.186 86.6236C474.763 119.358 480.61 154.168 480.61 188.5C480.61 202.5 497 220 504.5 228.936" stroke="white" stroke-width="32" stroke-linecap="round"/>
<path d="M540.513 173.117C540.513 189.742 537.977 208.282 541.241 224.602C543.563 236.21 560.829 228.599 565.284 222.659" stroke="white" stroke-width="32" stroke-linecap="round"/>
<path d="M539.055 117.743C533.983 117.743 536.511 112.262 537.598 109" stroke="white" stroke-width="32" stroke-linecap="round"/>
<path d="M607.431 182.342C607.431 194.377 607.431 206.412 607.431 218.447C607.431 221.631 607.431 224.815 607.431 227.999C607.431 241.061 606.116 201.732 608.079 188.819C610.949 169.937 632.069 135.885 655.517 140.41C669.772 143.161 673.448 170.008 677.373 180.804C683.104 196.563 687.292 211.204 699.23 223.142" stroke="white" stroke-width="32" stroke-linecap="round"/>
<path d="M785.599 149.335C773.445 149.335 760.507 146.743 751.276 155.974C738.355 168.894 731.413 190.528 736.704 208.754C740.929 223.306 760.012 231.643 773.942 227.211C785.304 223.596 794.956 213.678 800.17 203.249C806.817 189.956 808.579 172.069 805.918 157.431C805.691 156.18 804.167 150.507 804.623 154.84C807.464 181.836 817.462 207.452 819.923 234.658C821.413 251.141 824.419 272.079 811.827 284.848C801.637 295.182 785.786 302.327 771.837 305.896C761.65 308.502 750.266 312.372 739.7 312.372C721.988 312.372 711.676 293.736 704 280.477" stroke="white" stroke-width="32" stroke-linecap="round"/>
<path d="M860.969 234.367C860.969 232.233 862.386 227.303 862.525 232.032C862.611 234.941 862.142 232.81 864.86 232.81" stroke="white" stroke-width="32" stroke-linecap="round"/>
<path d="M917.008 229.695C918.708 232.246 916.668 232.272 919.17 232.376C921.038 232.454 919.084 235.273 920.899 234.365" stroke="white" stroke-width="32" stroke-linecap="round"/>
<path d="M973.045 235.921C970.394 232.135 977.369 237.283 972.31 238.126C971.41 238.276 972.073 233.1 976.158 235.143" stroke="white" stroke-width="32" stroke-linecap="round"/>
</svg>
