{
	"asset":{
		"generator":"Khronos glTF Blender I/O v4.3.47",
		"version":"2.0"
	},
	"scene":0,
	"scenes":[
		{
			"name":"Scene",
			"nodes":[
				0
			]
		}
	],
	"nodes":[
		{
			"mesh":0,
			"name":"3DBenchy"
		}
	],
	"meshes":[
		{
			"name":"3DBenchy",
			"primitives":[
				{
					"attributes":{
						"POSITION":0,
						"NORMAL":1
					},
					"indices":2
				}
			]
		}
	],
	"accessors":[
		{
			"bufferView":0,
			"componentType":5126,
			"count":3348,
			"max":[
				1.2822680473327637,
				1.99699068069458,
				0.643561840057373
			],
			"min":[
				-1.2093573808670044,
				-0.00040453215478919446,
				-0.6452085375785828
			],
			"type":"VEC3"
		},
		{
			"bufferView":1,
			"componentType":5126,
			"count":3348,
			"type":"VEC3"
		},
		{
			"bufferView":2,
			"componentType":5123,
			"count":3372,
			"type":"SCALAR"
		}
	],
	"bufferViews":[
		{
			"buffer":0,
			"byteLength":40176,
			"byteOffset":0,
			"target":34962
		},
		{
			"buffer":0,
			"byteLength":40176,
			"byteOffset":40176,
			"target":34962
		},
		{
			"buffer":0,
			"byteLength":6744,
			"byteOffset":80352,
			"target":34963
		}
	],
	"buffers":[
		{
			"byteLength":87096,
			"uri":"ship.bin"
		}
	]
}
