{
	"asset":{
		"generator":"Khronos glTF Blender I/O v4.3.47",
		"version":"2.0"
	},
	"scene":0,
	"scenes":[
		{
			"name":"Scene",
			"nodes":[
				0
			]
		}
	],
	"nodes":[
		{
			"mesh":0,
			"name":"3DBenchy"
		}
	],
	"meshes":[
		{
			"name":"3DBenchy",
			"primitives":[
				{
					"attributes":{
						"POSITION":0,
						"NORMAL":1
					},
					"indices":2
				}
			]
		}
	],
	"accessors":[
		{
			"bufferView":0,
			"componentType":5126,
			"count":6486,
			"max":[
				1.2831122875213623,
				1.997154951095581,
				0.6436499953269958
			],
			"min":[
				-1.212504506111145,
				-5.647186844726093e-05,
				-0.6450352668762207
			],
			"type":"VEC3"
		},
		{
			"bufferView":1,
			"componentType":5126,
			"count":6486,
			"type":"VEC3"
		},
		{
			"bufferView":2,
			"componentType":5123,
			"count":6750,
			"type":"SCALAR"
		}
	],
	"bufferViews":[
		{
			"buffer":0,
			"byteLength":77832,
			"byteOffset":0,
			"target":34962
		},
		{
			"buffer":0,
			"byteLength":77832,
			"byteOffset":77832,
			"target":34962
		},
		{
			"buffer":0,
			"byteLength":13500,
			"byteOffset":155664,
			"target":34963
		}
	],
	"buffers":[
		{
			"byteLength":169164,
			"uri":"ship_lodx.bin"
		}
	]
}
